<svg width="25" height="24" viewBox="0 0 25 24" fill="none" xmlns="http://www.w3.org/2000/svg">
<path d="M14.7868 12C14.7868 12.5192 14.6329 13.0267 14.3444 13.4584C14.056 13.8901 13.646 14.2265 13.1664 14.4252C12.6867 14.6239 12.1589 14.6758 11.6497 14.5746C11.1405 14.4733 10.6728 14.2233 10.3057 13.8562C9.93857 13.489 9.68856 13.0213 9.58727 12.5121C9.48599 12.0029 9.53797 11.4751 9.73665 10.9955C9.93533 10.5158 10.2718 10.1058 10.7035 9.81739C11.1351 9.52895 11.6427 9.375 12.1618 9.375C12.858 9.375 13.5257 9.65156 14.018 10.1438C14.5103 10.6361 14.7868 11.3038 14.7868 12ZM4.66184 9.375C4.14266 9.375 3.63514 9.52895 3.20346 9.81739C2.77179 10.1058 2.43533 10.5158 2.23665 10.9955C2.03797 11.4751 1.98599 12.0029 2.08727 12.5121C2.18856 13.0213 2.43857 13.489 2.80568 13.8562C3.17279 14.2233 3.64052 14.4733 4.14972 14.5746C4.65892 14.6758 5.18672 14.6239 5.66638 14.4252C6.14604 14.2265 6.55601 13.8901 6.84444 13.4584C7.13288 13.0267 7.28684 12.5192 7.28684 12C7.28684 11.3038 7.01027 10.6361 6.51799 10.1438C6.02571 9.65156 5.35803 9.375 4.66184 9.375ZM19.6618 9.375C19.1427 9.375 18.6351 9.52895 18.2035 9.81739C17.7718 10.1058 17.4353 10.5158 17.2367 10.9955C17.038 11.4751 16.986 12.0029 17.0873 12.5121C17.1886 13.0213 17.4386 13.489 17.8057 13.8562C18.1728 14.2233 18.6405 14.4733 19.1497 14.5746C19.6589 14.6758 20.1867 14.6239 20.6664 14.4252C21.146 14.2265 21.556 13.8901 21.8444 13.4584C22.1329 13.0267 22.2868 12.5192 22.2868 12C22.2868 11.6553 22.2189 11.3139 22.087 10.9955C21.9551 10.677 21.7617 10.3876 21.518 10.1438C21.2742 9.90009 20.9849 9.70673 20.6664 9.57482C20.3479 9.4429 20.0066 9.375 19.6618 9.375Z" fill="white"/>
</svg>
