<svg width="19" height="20" viewBox="0 0 19 20" fill="none" xmlns="http://www.w3.org/2000/svg">
<path d="M8.68234 12.5238C8.34641 12.5238 8.06516 12.2426 8.06516 11.9144V3.89099L8.11203 2.71912L7.58078 3.2738L6.40109 4.53943C6.29172 4.66443 6.11984 4.72693 5.97141 4.72693C5.64328 4.72693 5.40891 4.49255 5.40891 4.17224C5.40891 4.00818 5.47141 3.88318 5.58859 3.76599L8.22922 1.21912C8.39328 1.06287 8.52609 1.00818 8.68234 1.00818C8.84641 1.00818 8.97922 1.06287 9.13547 1.21912L11.7761 3.76599C11.8933 3.88318 11.9636 4.00818 11.9636 4.17224C11.9636 4.49255 11.7136 4.72693 11.3933 4.72693C11.237 4.72693 11.0808 4.66443 10.9714 4.53943L9.78391 3.2738L9.26047 2.71912L9.30734 3.89099V11.9144C9.30734 12.2426 9.01828 12.5238 8.68234 12.5238ZM4.20578 18.641C2.57297 18.641 1.75266 17.8285 1.75266 16.2191V8.42224C1.75266 6.81287 2.57297 6.00037 4.20578 6.00037H6.55734V7.25818H4.22141C3.44016 7.25818 3.01047 7.68005 3.01047 8.49255V16.1488C3.01047 16.9613 3.44016 17.3832 4.22141 17.3832H13.1433C13.9167 17.3832 14.362 16.9613 14.362 16.1488V8.49255C14.362 7.68005 13.9167 7.25818 13.1433 7.25818H10.8152V6.00037H13.1667C14.7995 6.00037 15.6198 6.81287 15.6198 8.42224V16.2191C15.6198 17.8285 14.7995 18.641 13.1667 18.641H4.20578Z" fill="white"/>
</svg>
