<svg width="25" height="24" viewBox="0 0 25 24" fill="none" xmlns="http://www.w3.org/2000/svg">
<path d="M9.16183 4H7.16183C6.60955 4 6.16183 4.44772 6.16183 5V19C6.16183 19.5523 6.60955 20 7.16183 20H9.16183C9.71412 20 10.1618 19.5523 10.1618 19V5C10.1618 4.44772 9.71412 4 9.16183 4Z" fill="white" stroke="white" stroke-width="2" stroke-linecap="round" stroke-linejoin="round"/>
<path d="M17.1618 4H15.1618C14.6095 4 14.1618 4.44772 14.1618 5V19C14.1618 19.5523 14.6095 20 15.1618 20H17.1618C17.7141 20 18.1618 19.5523 18.1618 19V5C18.1618 4.44772 17.7141 4 17.1618 4Z" fill="white" stroke="white" stroke-width="2" stroke-linecap="round" stroke-linejoin="round"/>
</svg>
