<svg width="38" height="38" viewBox="0 0 38 38" fill="none" xmlns="http://www.w3.org/2000/svg">
<path d="M9.5 14.25V23.75C9.5 24.0649 9.37489 24.367 9.15219 24.5897C8.92949 24.8124 8.62744 24.9375 8.3125 24.9375H7.125C6.81006 24.9375 6.50801 24.8124 6.28531 24.5897C6.06261 24.367 5.9375 24.0649 5.9375 23.75V14.25C5.9375 13.9351 6.06261 13.633 6.28531 13.4103C6.50801 13.1876 6.81006 13.0625 7.125 13.0625H8.3125C8.62744 13.0625 8.92949 13.1876 9.15219 13.4103C9.37489 13.633 9.5 13.9351 9.5 14.25ZM14.25 3.5625H13.0625C12.7476 3.5625 12.4455 3.68761 12.2228 3.91031C12.0001 4.13301 11.875 4.43506 11.875 4.75V33.25C11.875 33.5649 12.0001 33.867 12.2228 34.0897C12.4455 34.3124 12.7476 34.4375 13.0625 34.4375H14.25C14.5649 34.4375 14.867 34.3124 15.0897 34.0897C15.3124 33.867 15.4375 33.5649 15.4375 33.25V4.75C15.4375 4.43506 15.3124 4.13301 15.0897 3.91031C14.867 3.68761 14.5649 3.5625 14.25 3.5625ZM20.1875 8.3125H19C18.6851 8.3125 18.383 8.43761 18.1603 8.66031C17.9376 8.88301 17.8125 9.18506 17.8125 9.5V28.5C17.8125 28.8149 17.9376 29.117 18.1603 29.3397C18.383 29.5624 18.6851 29.6875 19 29.6875H20.1875C20.5024 29.6875 20.8045 29.5624 21.0272 29.3397C21.2499 29.117 21.375 28.8149 21.375 28.5V9.5C21.375 9.18506 21.2499 8.88301 21.0272 8.66031C20.8045 8.43761 20.5024 8.3125 20.1875 8.3125ZM26.125 13.0625H24.9375C24.6226 13.0625 24.3205 13.1876 24.0978 13.4103C23.8751 13.633 23.75 13.9351 23.75 14.25V23.75C23.75 24.0649 23.8751 24.367 24.0978 24.5897C24.3205 24.8124 24.6226 24.9375 24.9375 24.9375H26.125C26.4399 24.9375 26.742 24.8124 26.9647 24.5897C27.1874 24.367 27.3125 24.0649 27.3125 23.75V14.25C27.3125 13.9351 27.1874 13.633 26.9647 13.4103C26.742 13.1876 26.4399 13.0625 26.125 13.0625ZM32.0625 10.6875H30.875C30.5601 10.6875 30.258 10.8126 30.0353 11.0353C29.8126 11.258 29.6875 11.5601 29.6875 11.875V26.125C29.6875 26.4399 29.8126 26.742 30.0353 26.9647C30.258 27.1874 30.5601 27.3125 30.875 27.3125H32.0625C32.3774 27.3125 32.6795 27.1874 32.9022 26.9647C33.1249 26.742 33.25 26.4399 33.25 26.125V11.875C33.25 11.5601 33.1249 11.258 32.9022 11.0353C32.6795 10.8126 32.3774 10.6875 32.0625 10.6875Z" fill="white"/>
</svg>
