<svg width="19" height="21" viewBox="0 0 19 21" fill="none" xmlns="http://www.w3.org/2000/svg">
<path d="M0.862885 17.8447V6.99316C0.862885 5.36035 1.67538 4.54004 3.28476 4.54004H4.65195V3.09473C4.65195 1.46973 5.46445 0.641602 7.07382 0.641602H10.066C10.9019 0.641602 11.5582 0.852539 12.1129 1.42285L16.0582 5.43066C16.6441 6.03223 16.8394 6.6416 16.8394 7.60254V13.9463C16.8394 15.5713 16.0269 16.3994 14.4176 16.3994H13.0504V17.8447C13.0504 19.4697 12.2457 20.2979 10.6285 20.2979H3.28476C1.66757 20.2979 0.862885 19.4775 0.862885 17.8447ZM12.3082 9.66504C12.9332 10.3057 13.0504 10.7432 13.0504 11.7432V15.1416H14.3473C15.1598 15.1416 15.5816 14.7041 15.5816 13.9229V7.24316H11.9254C11.0269 7.24316 10.5894 6.81348 10.5894 5.90723V1.89941H7.13632C6.32382 1.89941 5.90976 2.34473 5.90976 3.11816V4.54004H6.04257C6.91757 4.54004 7.40976 4.67285 8.00351 5.28223L12.3082 9.66504ZM11.7223 5.71973C11.7223 5.99316 11.8316 6.11035 12.1051 6.11035H15.2535L11.7223 2.5166V5.71973ZM2.1207 17.8213C2.1207 18.6025 2.53476 19.04 3.33945 19.04H10.566C11.3707 19.04 11.7926 18.6025 11.7926 17.8213V11.8057H7.37851C6.40976 11.8057 5.90976 11.3135 5.90976 10.3291V5.79785H3.34726C2.53476 5.79785 2.1207 6.24316 2.1207 7.00879V17.8213ZM7.52695 10.626H11.5504L7.08945 6.08691V10.1885C7.08945 10.501 7.21445 10.626 7.52695 10.626Z" fill="white"/>
</svg>
